<svg width="76" height="51" viewBox="0 0 76 51" fill="none" xmlns="http://www.w3.org/2000/svg">
<path d="M43.6559 7.40859L40.2355 10.3238C37.862 8.05908 34.9597 6.33875 31.7334 5.36574L33.0471 1.09511C37.0969 2.31875 40.7247 4.5151 43.6559 7.40859ZM45.656 9.62413L42.2452 12.5312C44.2038 15.0124 45.6153 17.6422 46.295 20.8354L50.8667 21.133C50.1186 16.8345 48.2842 12.9012 45.656 9.62413ZM28.8064 4.70551L30.1313 0.398414C25.0822 -0.485442 20.1121 0.126083 15.6864 1.98649L17.5603 6.04768C21.0784 4.63702 24.7669 4.13428 28.8064 4.70551ZM32.6358 50.0108L30.6653 45.9108C18.9699 48.7895 5.67907 41.2065 4.48979 26.6054L0 26.7068C1.42797 46.1705 19.9292 53.9384 32.6358 50.0108ZM4.54441 23.6269C5.15895 16.7075 9.15785 10.7408 14.8806 7.37744L13.0002 3.30209C5.71188 7.41228 0.637539 14.969 0.0326562 23.7288L4.54441 23.6269ZM31.5496 29.1695L76 25.7465V24.5559L30.9509 21.4307C32.7054 23.6674 32.6858 26.2953 31.5495 29.1696L31.5496 29.1695ZM30.2026 25.1514C30.2026 21.9553 26.6995 19.947 23.9118 21.5451C21.1244 23.1431 21.1244 27.1597 23.9118 28.7577C26.6995 30.3556 30.2026 28.3473 30.2026 25.1514Z" fill="#D95447"/>
</svg>